<svg width="138" height="136" viewBox="0 0 138 136" fill="none" xmlns="http://www.w3.org/2000/svg">
<rect x="0.308029" y="0.308029" width="136.677" height="134.829" rx="10.781" fill="#EDF2F7" stroke="#4C535F" stroke-width="0.616058" stroke-dasharray="3.08 3.08"/>
<path d="M29.3727 95.2236C28.4821 95.2236 27.6954 95.0396 27.0127 94.6716C26.3301 94.3036 25.7941 93.789 25.4047 93.1276C25.0207 92.461 24.8287 91.6796 24.8287 90.7836V83.4716L26.2687 83.4636V90.6636C26.2687 91.2076 26.3594 91.6823 26.5407 92.0876C26.7274 92.4876 26.9727 92.821 27.2767 93.0876C27.5807 93.3543 27.9141 93.5543 28.2767 93.6876C28.6447 93.8156 29.0101 93.8796 29.3727 93.8796C29.7407 93.8796 30.1087 93.813 30.4767 93.6796C30.8447 93.5463 31.1781 93.349 31.4767 93.0876C31.7807 92.821 32.0234 92.485 32.2047 92.0796C32.3861 91.6743 32.4767 91.2023 32.4767 90.6636V83.4636H33.9167V90.7836C33.9167 91.6743 33.7221 92.453 33.3327 93.1196C32.9487 93.7863 32.4154 94.3036 31.7327 94.6716C31.0501 95.0396 30.2634 95.2236 29.3727 95.2236ZM40.1249 95.2236C39.3142 95.2236 38.6315 95.0236 38.0769 94.6236C37.5222 94.2183 37.1009 93.6716 36.8129 92.9836C36.5302 92.2903 36.3889 91.5143 36.3889 90.6556C36.3889 89.7863 36.5302 89.0076 36.8129 88.3196C37.1009 87.6316 37.5222 87.0903 38.0769 86.6956C38.6369 86.301 39.3222 86.1036 40.1329 86.1036C40.9329 86.1036 41.6209 86.3036 42.1969 86.7036C42.7782 87.0983 43.2235 87.6396 43.5329 88.3276C43.8422 89.0156 43.9969 89.7916 43.9969 90.6556C43.9969 91.5196 43.8422 92.2956 43.5329 92.9836C43.2235 93.6716 42.7782 94.2183 42.1969 94.6236C41.6209 95.0236 40.9302 95.2236 40.1249 95.2236ZM36.1489 98.8236V86.3436H37.4209V92.7036H37.5809V98.8236H36.1489ZM39.9489 93.9196C40.5195 93.9196 40.9915 93.7756 41.3649 93.4876C41.7382 93.1996 42.0182 92.8103 42.2049 92.3196C42.3915 91.8236 42.4849 91.269 42.4849 90.6556C42.4849 90.0476 42.3915 89.4983 42.2049 89.0076C42.0235 88.517 41.7409 88.1276 41.3569 87.8396C40.9782 87.5516 40.4955 87.4076 39.9089 87.4076C39.3489 87.4076 38.8849 87.5463 38.5169 87.8236C38.1489 88.0956 37.8742 88.477 37.6929 88.9676C37.5115 89.453 37.4209 90.0156 37.4209 90.6556C37.4209 91.285 37.5089 91.8476 37.6849 92.3436C37.8662 92.8343 38.1435 93.221 38.5169 93.5036C38.8902 93.781 39.3675 93.9196 39.9489 93.9196ZM45.9106 94.9836V83.2236H47.3346V94.9836H45.9106ZM53.415 95.2236C52.5563 95.2236 51.815 95.029 51.191 94.6396C50.5723 94.2503 50.095 93.7116 49.759 93.0236C49.423 92.3356 49.255 91.5463 49.255 90.6556C49.255 89.749 49.4256 88.9543 49.767 88.2716C50.1083 87.589 50.591 87.0583 51.215 86.6796C51.839 86.2956 52.5723 86.1036 53.415 86.1036C54.279 86.1036 55.023 86.2983 55.647 86.6876C56.271 87.0716 56.7483 87.6076 57.079 88.2956C57.415 88.9783 57.583 89.765 57.583 90.6556C57.583 91.557 57.415 92.3516 57.079 93.0396C56.743 93.7223 56.263 94.2583 55.639 94.6476C55.015 95.0316 54.2736 95.2236 53.415 95.2236ZM53.415 93.8716C54.311 93.8716 54.9776 93.573 55.415 92.9756C55.8523 92.3783 56.071 91.605 56.071 90.6556C56.071 89.6796 55.8496 88.9036 55.407 88.3276C54.9643 87.7463 54.3003 87.4556 53.415 87.4556C52.8123 87.4556 52.3163 87.5916 51.927 87.8636C51.5376 88.1356 51.247 88.5116 51.055 88.9916C50.863 89.4716 50.767 90.0263 50.767 90.6556C50.767 91.6263 50.991 92.405 51.439 92.9916C51.887 93.5783 52.5456 93.8716 53.415 93.8716ZM61.8004 95.2236C61.155 95.2236 60.6137 95.1063 60.1764 94.8716C59.7444 94.6316 59.4164 94.317 59.1924 93.9276C58.9737 93.5383 58.8644 93.1116 58.8644 92.6476C58.8644 92.1943 58.9497 91.8023 59.1204 91.4716C59.2964 91.1356 59.5417 90.8583 59.8564 90.6396C60.171 90.4156 60.547 90.2396 60.9844 90.1116C61.395 89.9996 61.8537 89.9036 62.3604 89.8236C62.8724 89.7383 63.3897 89.661 63.9124 89.5916C64.435 89.5223 64.923 89.4556 65.3764 89.3916L64.8644 89.6876C64.8804 88.9196 64.7257 88.3516 64.4004 87.9836C64.0804 87.6156 63.5257 87.4316 62.7364 87.4316C62.2137 87.4316 61.755 87.5516 61.3604 87.7916C60.971 88.0263 60.6964 88.4103 60.5364 88.9436L59.1844 88.5356C59.3924 87.7783 59.795 87.1836 60.3924 86.7516C60.9897 86.3196 61.7764 86.1036 62.7524 86.1036C63.5364 86.1036 64.2084 86.245 64.7684 86.5276C65.3337 86.805 65.739 87.2263 65.9844 87.7916C66.107 88.0583 66.1844 88.349 66.2164 88.6636C66.2484 88.973 66.2644 89.2983 66.2644 89.6396V94.9836H65.0004V92.9116L65.2964 93.1036C64.971 93.8023 64.515 94.3303 63.9284 94.6876C63.347 95.045 62.6377 95.2236 61.8004 95.2236ZM62.0164 94.0316C62.5284 94.0316 62.971 93.941 63.3444 93.7596C63.723 93.573 64.027 93.3303 64.2564 93.0316C64.4857 92.7276 64.635 92.397 64.7044 92.0396C64.7844 91.773 64.827 91.477 64.8324 91.1516C64.843 90.821 64.8484 90.5676 64.8484 90.3916L65.3444 90.6076C64.8804 90.6716 64.4244 90.733 63.9764 90.7916C63.5284 90.8503 63.1044 90.9143 62.7044 90.9836C62.3044 91.0476 61.9444 91.125 61.6244 91.2156C61.3897 91.2903 61.1684 91.3863 60.9604 91.5036C60.7577 91.621 60.5924 91.773 60.4644 91.9596C60.3417 92.141 60.2804 92.3676 60.2804 92.6396C60.2804 92.8743 60.339 93.0983 60.4564 93.3116C60.579 93.525 60.7657 93.6983 61.0164 93.8316C61.2724 93.965 61.6057 94.0316 62.0164 94.0316ZM71.7364 95.2236C70.931 95.2236 70.2404 95.0236 69.6644 94.6236C69.0884 94.2183 68.643 93.6716 68.3284 92.9836C68.019 92.2956 67.8644 91.5196 67.8644 90.6556C67.8644 89.7916 68.019 89.0156 68.3284 88.3276C68.643 87.6396 69.0884 87.0983 69.6644 86.7036C70.2404 86.3036 70.9284 86.1036 71.7284 86.1036C72.5444 86.1036 73.2297 86.301 73.7844 86.6956C74.339 87.0903 74.7577 87.6316 75.0404 88.3196C75.3284 89.0076 75.4724 89.7863 75.4724 90.6556C75.4724 91.5143 75.3284 92.2903 75.0404 92.9836C74.7577 93.6716 74.339 94.2183 73.7844 94.6236C73.2297 95.0236 72.547 95.2236 71.7364 95.2236ZM71.9124 93.9196C72.4937 93.9196 72.971 93.781 73.3444 93.5036C73.7177 93.221 73.9924 92.8343 74.1684 92.3436C74.3497 91.8476 74.4404 91.285 74.4404 90.6556C74.4404 90.0156 74.3497 89.453 74.1684 88.9676C73.9924 88.477 73.7204 88.0956 73.3524 87.8236C72.9844 87.5463 72.5177 87.4076 71.9524 87.4076C71.3657 87.4076 70.8804 87.5516 70.4964 87.8396C70.1177 88.1276 69.835 88.517 69.6484 89.0076C69.467 89.4983 69.3764 90.0476 69.3764 90.6556C69.3764 91.269 69.4697 91.8236 69.6564 92.3196C69.843 92.8103 70.123 93.1996 70.4964 93.4876C70.875 93.7756 71.347 93.9196 71.9124 93.9196ZM74.4404 94.9836V88.6236H74.2804V83.4636H75.7124V94.9836H74.4404ZM82.3569 98.8236L84.0289 94.2796L84.0529 95.6236L80.2769 86.3436H81.7729L84.7329 93.8076H84.2209L86.9969 86.3436H88.4449L83.7409 98.8236H82.3569ZM93.1337 95.2236C92.2751 95.2236 91.5337 95.029 90.9097 94.6396C90.2911 94.2503 89.8137 93.7116 89.4777 93.0236C89.1417 92.3356 88.9737 91.5463 88.9737 90.6556C88.9737 89.749 89.1444 88.9543 89.4857 88.2716C89.8271 87.589 90.3097 87.0583 90.9337 86.6796C91.5577 86.2956 92.2911 86.1036 93.1337 86.1036C93.9977 86.1036 94.7417 86.2983 95.3657 86.6876C95.9897 87.0716 96.4671 87.6076 96.7977 88.2956C97.1337 88.9783 97.3017 89.765 97.3017 90.6556C97.3017 91.557 97.1337 92.3516 96.7977 93.0396C96.4617 93.7223 95.9817 94.2583 95.3577 94.6476C94.7337 95.0316 93.9924 95.2236 93.1337 95.2236ZM93.1337 93.8716C94.0297 93.8716 94.6964 93.573 95.1337 92.9756C95.5711 92.3783 95.7897 91.605 95.7897 90.6556C95.7897 89.6796 95.5684 88.9036 95.1257 88.3276C94.6831 87.7463 94.0191 87.4556 93.1337 87.4556C92.5311 87.4556 92.0351 87.5916 91.6457 87.8636C91.2564 88.1356 90.9657 88.5116 90.7737 88.9916C90.5817 89.4716 90.4857 90.0263 90.4857 90.6556C90.4857 91.6263 90.7097 92.405 91.1577 92.9916C91.6057 93.5783 92.2644 93.8716 93.1337 93.8716ZM102.343 95.2076C101.788 95.2076 101.311 95.1196 100.911 94.9436C100.516 94.7676 100.188 94.533 99.9271 94.2396C99.6658 93.9463 99.4604 93.621 99.3111 93.2636C99.1618 92.9063 99.0551 92.541 98.9911 92.1676C98.9324 91.7943 98.9031 91.445 98.9031 91.1196V86.3436H100.343V90.6716C100.343 91.077 100.38 91.469 100.455 91.8476C100.53 92.2263 100.655 92.5676 100.831 92.8716C101.012 93.1756 101.252 93.4156 101.551 93.5916C101.855 93.7676 102.234 93.8556 102.687 93.8556C103.044 93.8556 103.37 93.7943 103.663 93.6716C103.956 93.549 104.207 93.3676 104.415 93.1276C104.623 92.8823 104.783 92.573 104.895 92.1996C105.007 91.8263 105.063 91.3916 105.063 90.8956L105.999 91.1836C105.999 92.0156 105.847 92.733 105.543 93.3356C105.244 93.9383 104.82 94.4023 104.271 94.7276C103.727 95.0476 103.084 95.2076 102.343 95.2076ZM105.223 94.9836V92.6716H105.063V86.3436H106.495V94.9836H105.223ZM108.735 94.9836V86.3436H110.007V88.4316L109.799 88.1596C109.9 87.893 110.031 87.6476 110.191 87.4236C110.356 87.1996 110.54 87.0156 110.743 86.8716C110.967 86.6903 111.22 86.5516 111.503 86.4556C111.786 86.3596 112.074 86.3036 112.367 86.2876C112.66 86.2663 112.935 86.285 113.191 86.3436V87.6796C112.892 87.5996 112.564 87.5783 112.207 87.6156C111.85 87.653 111.519 87.7836 111.215 88.0076C110.938 88.205 110.722 88.445 110.567 88.7276C110.418 89.0103 110.314 89.317 110.255 89.6476C110.196 89.973 110.167 90.3063 110.167 90.6476V94.9836H108.735ZM51.3827 117.224C50.572 117.224 49.8893 117.024 49.3347 116.624C48.78 116.218 48.3587 115.672 48.0707 114.984C47.788 114.29 47.6467 113.514 47.6467 112.656C47.6467 111.786 47.788 111.008 48.0707 110.32C48.3587 109.632 48.78 109.09 49.3347 108.696C49.8947 108.301 50.58 108.104 51.3907 108.104C52.1907 108.104 52.8787 108.304 53.4547 108.704C54.036 109.098 54.4813 109.64 54.7907 110.328C55.1 111.016 55.2547 111.792 55.2547 112.656C55.2547 113.52 55.1 114.296 54.7907 114.984C54.4813 115.672 54.036 116.218 53.4547 116.624C52.8787 117.024 52.188 117.224 51.3827 117.224ZM47.4067 120.824V108.344H48.6787V114.704H48.8387V120.824H47.4067ZM51.2067 115.92C51.7773 115.92 52.2493 115.776 52.6227 115.488C52.996 115.2 53.276 114.81 53.4627 114.32C53.6493 113.824 53.7427 113.269 53.7427 112.656C53.7427 112.048 53.6493 111.498 53.4627 111.008C53.2813 110.517 52.9987 110.128 52.6147 109.84C52.236 109.552 51.7533 109.408 51.1667 109.408C50.6067 109.408 50.1427 109.546 49.7747 109.824C49.4067 110.096 49.132 110.477 48.9507 110.968C48.7693 111.453 48.6787 112.016 48.6787 112.656C48.6787 113.285 48.7667 113.848 48.9427 114.344C49.124 114.834 49.4013 115.221 49.7747 115.504C50.148 115.781 50.6253 115.92 51.2067 115.92ZM63.1604 116.984V112.656C63.1604 112.245 63.1231 111.85 63.0484 111.472C62.9791 111.093 62.8537 110.754 62.6724 110.456C62.4964 110.152 62.2564 109.912 61.9524 109.736C61.6537 109.56 61.2751 109.472 60.8164 109.472C60.4591 109.472 60.1337 109.533 59.8404 109.656C59.5524 109.773 59.3044 109.954 59.0964 110.2C58.8884 110.445 58.7257 110.754 58.6084 111.128C58.4964 111.496 58.4404 111.93 58.4404 112.432L57.5044 112.144C57.5044 111.306 57.6537 110.589 57.9524 109.992C58.2564 109.389 58.6804 108.928 59.2244 108.608C59.7737 108.282 60.4191 108.12 61.1604 108.12C61.7204 108.12 62.1978 108.208 62.5924 108.384C62.9871 108.56 63.3151 108.794 63.5764 109.088C63.8377 109.376 64.0431 109.701 64.1924 110.064C64.3418 110.421 64.4458 110.786 64.5044 111.16C64.5684 111.528 64.6004 111.877 64.6004 112.208V116.984H63.1604ZM57.0004 116.984V105.464H58.2804V111.824H58.4404V116.984H57.0004ZM70.3603 117.224C69.5016 117.224 68.7603 117.029 68.1363 116.64C67.5176 116.25 67.0403 115.712 66.7043 115.024C66.3683 114.336 66.2003 113.546 66.2003 112.656C66.2003 111.749 66.371 110.954 66.7123 110.272C67.0536 109.589 67.5363 109.058 68.1603 108.68C68.7843 108.296 69.5176 108.104 70.3603 108.104C71.2243 108.104 71.9683 108.298 72.5923 108.688C73.2163 109.072 73.6936 109.608 74.0243 110.296C74.3603 110.978 74.5283 111.765 74.5283 112.656C74.5283 113.557 74.3603 114.352 74.0243 115.04C73.6883 115.722 73.2083 116.258 72.5843 116.648C71.9603 117.032 71.219 117.224 70.3603 117.224ZM70.3603 115.872C71.2563 115.872 71.923 115.573 72.3603 114.976C72.7976 114.378 73.0163 113.605 73.0163 112.656C73.0163 111.68 72.795 110.904 72.3523 110.328C71.9096 109.746 71.2456 109.456 70.3603 109.456C69.7576 109.456 69.2616 109.592 68.8723 109.864C68.483 110.136 68.1923 110.512 68.0003 110.992C67.8083 111.472 67.7123 112.026 67.7123 112.656C67.7123 113.626 67.9363 114.405 68.3843 114.992C68.8323 115.578 69.491 115.872 70.3603 115.872ZM81.1137 116.984C80.6017 117.085 80.095 117.125 79.5937 117.104C79.0977 117.088 78.655 116.989 78.2657 116.808C77.8763 116.621 77.5803 116.333 77.3777 115.944C77.207 115.602 77.1137 115.258 77.0977 114.912C77.087 114.56 77.0817 114.162 77.0817 113.72V105.944H78.5057V113.656C78.5057 114.008 78.5083 114.309 78.5137 114.56C78.5243 114.81 78.5803 115.026 78.6817 115.208C78.8737 115.549 79.1777 115.749 79.5937 115.808C80.015 115.866 80.5217 115.85 81.1137 115.76V116.984ZM75.3297 109.52V108.344H81.1137V109.52H75.3297ZM86.1884 117.224C85.3297 117.224 84.5884 117.029 83.9644 116.64C83.3457 116.25 82.8684 115.712 82.5324 115.024C82.1964 114.336 82.0284 113.546 82.0284 112.656C82.0284 111.749 82.1991 110.954 82.5404 110.272C82.8817 109.589 83.3644 109.058 83.9884 108.68C84.6124 108.296 85.3457 108.104 86.1884 108.104C87.0524 108.104 87.7964 108.298 88.4204 108.688C89.0444 109.072 89.5218 109.608 89.8524 110.296C90.1884 110.978 90.3564 111.765 90.3564 112.656C90.3564 113.557 90.1884 114.352 89.8524 115.04C89.5164 115.722 89.0364 116.258 88.4124 116.648C87.7884 117.032 87.0471 117.224 86.1884 117.224ZM86.1884 115.872C87.0844 115.872 87.7511 115.573 88.1884 114.976C88.6257 114.378 88.8444 113.605 88.8444 112.656C88.8444 111.68 88.6231 110.904 88.1804 110.328C87.7377 109.746 87.0737 109.456 86.1884 109.456C85.5857 109.456 85.0897 109.592 84.7004 109.864C84.3111 110.136 84.0204 110.512 83.8284 110.992C83.6364 111.472 83.5404 112.026 83.5404 112.656C83.5404 113.626 83.7644 114.405 84.2124 114.992C84.6604 115.578 85.3191 115.872 86.1884 115.872Z" fill="#4C535F"/>
<path fill-rule="evenodd" clip-rule="evenodd" d="M60.1973 33.6134C60.9789 33.106 61.8977 32.8352 62.8377 32.8352C63.4411 32.8352 63.9303 33.3105 63.9303 33.8969C63.9303 34.4832 63.4411 34.9585 62.8377 34.9585C62.3299 34.9585 61.8336 35.1048 61.4115 35.3788C60.9893 35.6529 60.6603 36.0424 60.466 36.4982C60.2717 36.9539 60.2209 37.4554 60.3199 37.9392C60.419 38.4231 60.6634 38.8675 61.0225 39.2163C61.3815 39.5651 61.8389 39.8027 62.3368 39.8989C62.8348 39.9951 63.351 39.9457 63.82 39.757C64.2891 39.5682 64.69 39.2485 64.9721 38.8383C65.2542 38.4282 65.4047 37.946 65.4047 37.4527C65.4047 36.8663 65.8939 36.391 66.4974 36.391C67.1009 36.391 67.5901 36.8663 67.5901 37.4527C67.5901 38.3659 67.3114 39.2586 66.7892 40.018C66.267 40.7773 65.5247 41.3691 64.6563 41.7186C63.7879 42.0681 62.8324 42.1595 61.9105 41.9814C60.9886 41.8032 60.1418 41.3634 59.4772 40.7177C58.8125 40.0719 58.3599 39.2492 58.1765 38.3535C57.9931 37.4578 58.0873 36.5294 58.447 35.6856C58.8067 34.8419 59.4158 34.1208 60.1973 33.6134Z" fill="#8D98AA"/>
<path fill-rule="evenodd" clip-rule="evenodd" d="M86.5791 38.9918C87.1739 38.9918 87.6561 39.47 87.6561 40.06V49.0039C87.6561 53.5793 86.7452 57.0599 84.4285 59.3706C82.1103 61.6826 78.6166 62.5921 74.0261 62.5921H63.2665C58.6774 62.5921 55.1837 61.683 52.8652 59.3712C50.5481 57.0608 49.6365 53.5801 49.6365 49.0039V45.4078C49.6365 44.8179 50.1186 44.3397 50.7134 44.3397C51.3082 44.3397 51.7904 44.8179 51.7904 45.4078V49.0039C51.7904 53.3716 52.6737 56.151 54.3923 57.8646C56.1095 59.5769 58.8924 60.4558 63.2665 60.4558H74.0261C78.4015 60.4558 81.1844 59.5765 82.9012 57.8642C84.6195 56.1504 85.5022 53.371 85.5022 49.0039V40.06C85.5022 39.47 85.9843 38.9918 86.5791 38.9918Z" fill="#8D98AA"/>
<path fill-rule="evenodd" clip-rule="evenodd" d="M52.91 28.808C55.2594 26.5434 58.7995 25.6525 63.4531 25.6525H70.7285C71.3283 25.6525 71.8146 26.1212 71.8146 26.6994C71.8146 27.2776 71.3283 27.7463 70.7285 27.7463H63.4531C59.0138 27.7463 56.1887 28.6087 54.446 30.2886C52.7033 31.9685 51.8087 34.6917 51.8087 38.9709C51.8087 39.5491 51.3224 40.0179 50.7226 40.0179C50.1227 40.0179 49.6365 39.5491 49.6365 38.9709C49.6365 34.4851 50.5607 31.0726 52.91 28.808Z" fill="#8D98AA"/>
<path fill-rule="evenodd" clip-rule="evenodd" d="M73.927 31.8091C73.927 31.2424 74.4331 30.783 75.0575 30.783H85.4697C86.0941 30.783 86.6002 31.2424 86.6002 31.8091C86.6002 32.3758 86.0941 32.8352 85.4697 32.8352H75.0575C74.4331 32.8352 73.927 32.3758 73.927 31.8091Z" fill="#8D98AA"/>
<path fill-rule="evenodd" clip-rule="evenodd" d="M80.2633 25.6525C80.8465 25.6525 81.3194 26.1442 81.3194 26.7508V36.8673C81.3194 37.4739 80.8465 37.9657 80.2633 37.9657C79.68 37.9657 79.2072 37.4739 79.2072 36.8673V26.7508C79.2072 26.1442 79.68 25.6525 80.2633 25.6525Z" fill="#8D98AA"/>
<path fill-rule="evenodd" clip-rule="evenodd" d="M79.2596 45.841L71.7853 52.1273L71.7654 52.1436C70.8567 52.8715 69.7166 53.2695 68.5399 53.2695C67.3632 53.2695 66.223 52.8715 65.3143 52.1436C65.3045 52.1358 65.2949 52.1278 65.2854 52.1196L64.7084 51.6232C64.2252 51.2445 63.6318 51.0232 63.012 50.991C62.3884 50.9586 61.7704 51.1193 61.2465 51.45L52.3793 57.2811C51.8844 57.6066 51.2121 57.4798 50.8779 56.9979C50.5436 56.5159 50.6738 55.8614 51.1688 55.5359L60.0582 49.6903C60.9678 49.1126 62.0427 48.8317 63.1272 48.888C64.2117 48.9444 65.2497 49.3351 66.0911 50.0037C66.102 50.0124 66.1128 50.0212 66.1233 50.0303L66.702 50.5282C67.2214 50.9391 67.8703 51.1636 68.5399 51.1636C69.2113 51.1636 69.862 50.9378 70.382 50.5247L77.8564 44.2384L77.8762 44.2221C78.7849 43.4942 79.9251 43.0962 81.1018 43.0962C82.2785 43.0962 83.4186 43.4942 84.3273 44.2221L84.3472 44.2384L87.2815 46.7065C87.7335 47.0867 87.7834 47.7516 87.3929 48.1917C87.0025 48.6317 86.3196 48.6803 85.8676 48.3001L82.9439 45.8409C82.4239 45.4278 81.7732 45.2021 81.1018 45.2021C80.4304 45.2021 79.7797 45.4278 79.2596 45.841Z" fill="#8D98AA"/>
</svg>
